<svg width="32" height="32" viewBox="0 0 32 32" fill="none" xmlns="http://www.w3.org/2000/svg">
<path d="M23.784 52.2827C24.0757 52.2352 24.3664 52.1866 24.6573 52.1342V52.04H25.1573L25.2543 52.5305C25.222 52.5369 25.1896 52.5432 25.1573 52.5495V56.688M23.784 52.2827L23.7266 51.786C23.7228 51.7864 23.719 51.7869 23.7151 51.7873M23.784 52.2827L23.7037 51.7892C23.7075 51.7885 23.7113 51.7879 23.7151 51.7873M23.784 52.2827C23.3227 52.336 22.856 52.3627 22.392 52.3627L25.1573 56.688M23.7151 51.7873C24.1681 51.7135 24.6138 51.6378 25.0604 51.5495L25.6573 51.4315V52.04V56.6778M23.7151 51.7873C23.2767 51.8375 22.8331 51.8627 22.392 51.8627V51.8625L22.3794 51.8628C21.0983 51.8952 19.8349 51.5957 18.707 50.9939C17.6524 50.3306 16.8368 49.3489 16.3768 48.189L16.3716 48.176L16.3658 48.1633C16.1488 47.6945 15.941 47.2783 15.7424 46.9129C15.5604 46.5256 15.3372 46.1633 15.0824 45.8258C14.8317 45.478 14.5416 45.1587 14.2203 44.8761C13.8859 44.548 13.5331 44.2425 13.1675 43.9594L13.1579 43.952L13.1481 43.945L13.0681 43.889L13.0603 43.8836L13.0524 43.8785C12.9073 43.7849 12.7168 43.6446 12.474 43.4514L12.4616 43.4416L12.4487 43.4325C12.403 43.4007 12.3649 43.3593 12.3371 43.3111C12.3329 43.3039 12.329 43.2966 12.3254 43.2892C12.3561 43.275 12.3881 43.2635 12.4209 43.2548C12.5208 43.2296 12.6234 43.217 12.7264 43.2173L12.7583 43.2174L12.79 43.2135C12.8871 43.2013 12.9733 43.193 13.0542 43.1907C13.4245 43.1919 13.7907 43.2692 14.1299 43.4179L14.1392 43.422L14.1487 43.4257C14.5171 43.5697 14.8645 43.7625 15.1815 43.9991C15.5145 44.2528 15.8229 44.5373 16.1027 44.8488C16.3692 45.1465 16.6123 45.4643 16.83 45.7994C17.3832 46.7072 18.1068 47.4994 18.961 48.1324L18.9707 48.1396L18.9808 48.1464C19.9046 48.7637 20.9998 49.0732 22.1099 49.0306C23.2656 49.0233 24.4055 48.7608 25.4479 48.2616L25.6916 48.145L25.7276 47.8772C25.8131 47.2395 25.9807 46.6156 26.2261 46.0208C26.4738 45.4454 26.8422 44.9299 27.3064 44.5091L28.1463 43.7479L27.0179 43.6409C25.2073 43.4692 23.428 43.0531 21.7294 42.4029C20.3286 41.8587 19.0576 41.0254 18.0024 39.954C16.9855 38.8466 16.2197 37.5348 15.76 36.1072C15.2228 34.3263 14.9677 32.4722 15.0039 30.6124L15.0041 30.6124L15.004 30.5998C14.9967 29.3169 15.2237 28.0435 15.6736 26.842L15.6738 26.8414C16.1244 25.6334 16.8073 24.5254 17.684 23.58L17.8977 23.3494L17.7826 23.0569C17.5986 22.5895 17.4664 22.1036 17.3839 21.6062L17.3836 21.6042C17.2977 21.0989 17.2547 20.5886 17.2547 20.0783C17.2573 19.4186 17.3231 18.7638 17.459 18.1237C17.5903 17.5492 17.7552 16.983 17.9527 16.428H18.1673C18.7153 16.4356 19.2588 16.5269 19.7792 16.6988L19.7905 16.7025L19.802 16.7057C20.4202 16.8776 21.0229 17.1008 21.604 17.3728L21.6107 17.376L21.6176 17.3789C22.2137 17.6367 22.7932 17.9316 23.3525 18.2618C23.8613 18.5663 24.3625 18.8834 24.8554 19.213L25.0464 19.3406L25.2676 19.279C29.6658 18.0531 34.3155 18.0531 38.7138 19.279L38.9358 19.3409L39.1271 19.2122C39.5684 18.9154 40.0667 18.5954 40.6303 18.2625L40.6313 18.2619C41.1845 17.9333 41.7561 17.6368 42.3432 17.3736L42.3446 17.373C42.9311 17.1079 43.5356 16.8843 44.1534 16.704L44.1608 16.7018L44.1682 16.6994C44.7017 16.5257 45.2529 16.4331 45.8129 16.428H46.0296C46.2225 16.9808 46.3796 17.5456 46.5 18.1188L46.4999 18.1188L46.5028 18.1314C46.6537 18.7677 46.7293 19.4223 46.7293 20.0773C46.7293 20.5879 46.6864 21.0994 46.6027 21.6066C46.5207 22.1025 46.3856 22.588 46.1995 23.0549L46.0823 23.349L46.298 23.5807C47.1768 24.5247 47.8622 25.6315 48.3156 26.8389C48.763 28.0406 48.9873 29.3139 48.9774 30.5961L48.9772 30.5961L48.9774 30.6098C49.0141 32.4804 48.7515 34.3448 48.1996 36.1325C47.7559 37.5593 46.9881 38.867 45.9571 39.9492C44.909 41.0278 43.6375 41.8639 42.2319 42.3987C40.5242 43.0375 38.7401 43.4498 36.9253 43.625L35.7922 43.7344L36.6394 44.4948C37.2631 45.0546 37.7133 45.7815 37.9368 46.5893L37.9367 46.5893L37.9391 46.5975C38.1884 47.4423 38.3171 48.3181 38.3213 49.1989C38.3213 50.4649 38.3107 51.7235 38.2947 52.9669H38.2947V52.9733V56.7139C38.2867 56.9589 38.3271 57.203 38.4134 57.4324C38.5009 57.665 38.634 57.8778 38.8048 58.0583L38.8141 58.0681L38.8239 58.0774C39.0087 58.2528 39.2275 58.3884 39.4667 58.4761C39.7011 58.562 39.9504 58.6001 40.1997 58.588H40.4347V58.0907H40.439L40.5884 58.5531C46.9203 56.5076 52.3138 52.2686 55.7978 46.5994C59.2818 40.9303 60.6272 34.2035 59.5918 27.6304C58.5564 21.0573 55.2083 15.0699 50.1503 10.7462C45.0923 6.42258 38.6568 4.04686 32.0027 4.04686C25.3485 4.04686 18.913 6.42258 13.855 10.7462C8.79703 15.0699 5.44888 21.0573 4.41351 27.6304C3.37813 34.2035 4.72356 40.9303 8.20752 46.5994C11.6915 52.2686 17.085 56.5076 23.417 58.5531L23.4919 58.5773H23.5707H23.7205C23.9719 58.5917 24.2236 58.5542 24.46 58.467C24.702 58.3777 24.9224 58.2383 25.1068 58.058C25.2913 57.8777 25.4356 57.6605 25.5304 57.4206C25.6237 57.1844 25.6669 56.9315 25.6573 56.6778M25.6573 56.6778C25.6572 56.6738 25.657 56.6698 25.6568 56.6659L25.1573 56.688M25.6573 56.6778V56.688H25.1573M9.72614 9.72614C15.6335 3.81874 23.6457 0.5 32 0.5C40.3543 0.5 48.3665 3.81874 54.2739 9.72614C60.1813 15.6335 63.5 23.6457 63.5 32C63.5 40.3543 60.1813 48.3665 54.2739 54.2739C48.3665 60.1813 40.3543 63.5 32 63.5C23.6457 63.5 15.6335 60.1813 9.72614 54.2739C3.81874 48.3665 0.5 40.3543 0.5 32C0.5 23.6457 3.81874 15.6335 9.72614 9.72614Z" fill="white" stroke="black"/>
</svg>
