
<svg width="86px" height="86px" viewBox="0 0 31 31" fill="none" xmlns="http://www.w3.org/2000/svg">
<ellipse cx="15.5" cy="15.5" rx="15.5" ry="13.5" fill="black"/>
<path d="M15.5 0C11.3891 0 7.44666 1.63303 4.53984 4.53984C1.63303 7.44666 0 11.3891 0 15.5C0 19.6109 1.63303 23.5533 4.53984 26.4602C7.44666 29.367 11.3891 31 15.5 31C19.6109 31 23.5533 29.367 26.4602 26.4602C29.367 23.5533 31 19.6109 31 15.5C31 11.3891 29.367 7.44666 26.4602 4.53984C23.5533 1.63303 19.6109 0 15.5 0V0ZM19.5855 28.1364H19.4654C19.3752 28.1415 19.2849 28.1281 19.2 28.097C19.1152 28.0659 19.0376 28.0177 18.972 27.9555C18.9114 27.8915 18.8642 27.816 18.8332 27.7335C18.8021 27.651 18.7878 27.5631 18.7912 27.475V25.659C18.7989 25.0557 18.8041 24.4448 18.8041 23.83C18.802 23.3804 18.7363 22.9333 18.609 22.5021C18.4885 22.0662 18.2455 21.674 17.909 21.3719C18.8092 21.285 19.6942 21.0805 20.5414 20.7635C21.256 20.4918 21.9023 20.0668 22.435 19.5184C22.9607 18.9668 23.352 18.3003 23.5781 17.5731C23.853 16.6826 23.9839 15.7537 23.9656 14.8219C23.9706 14.1712 23.8568 13.5251 23.6298 12.9154C23.399 12.3008 23.0502 11.7374 22.6029 11.2569C22.6994 11.0145 22.7696 10.7625 22.8121 10.5051C22.8547 10.2468 22.8767 9.98587 22.8767 9.72496C22.8767 9.38912 22.838 9.05329 22.7605 8.7265C22.6901 8.39132 22.5946 8.06188 22.475 7.74096C22.4293 7.72314 22.3806 7.71437 22.3316 7.71512H22.1895C21.8925 7.71771 21.6005 7.76679 21.319 7.8585C21.0088 7.94904 20.7054 8.06126 20.4109 8.19433C20.1181 8.32558 19.833 8.47351 19.5571 8.63737C19.2794 8.80142 19.034 8.959 18.817 9.10496C16.6441 8.49933 14.3469 8.49933 12.174 9.10496C11.9316 8.94295 11.6853 8.78704 11.4351 8.63737C11.1553 8.47214 10.8654 8.3246 10.5671 8.19562C10.2735 8.05814 9.96888 7.94537 9.6565 7.8585C9.38047 7.76731 9.09209 7.71896 8.80142 7.71512H8.65933C8.61074 7.71444 8.56249 7.72321 8.51725 7.74096C8.39591 8.06233 8.29665 8.39161 8.22017 8.7265C8.15042 9.05458 8.11683 9.38912 8.11554 9.72496C8.11554 9.98587 8.1375 10.2468 8.18142 10.5051C8.22404 10.7622 8.2925 11.014 8.38808 11.2569C7.94193 11.738 7.59438 12.3019 7.36508 12.9167C7.13682 13.5262 7.0217 14.1723 7.02537 14.8232C7.00731 15.75 7.13457 16.674 7.40254 17.5615C7.63633 18.2887 8.02642 18.9565 8.54437 19.5197C9.08042 20.0647 9.72625 20.4884 10.438 20.7648C11.2814 21.0877 12.1649 21.2944 13.0639 21.3797C12.8129 21.6072 12.6138 21.886 12.4801 22.1973C12.3529 22.5051 12.2661 22.8282 12.2217 23.1583C11.7478 23.3852 11.2295 23.5043 10.704 23.507C10.2161 23.5266 9.73445 23.3909 9.32842 23.1195C8.9389 22.8309 8.60903 22.4694 8.35708 22.0552C8.24432 21.8812 8.11822 21.7163 7.97992 21.5618C7.83401 21.3994 7.67313 21.251 7.49942 21.1187C7.32819 20.9908 7.1405 20.8865 6.94142 20.8088C6.74554 20.7229 6.534 20.6784 6.32012 20.6783C6.26846 20.6796 6.21679 20.6847 6.16512 20.6912C6.09457 20.691 6.02426 20.6997 5.95587 20.717C5.89577 20.7328 5.83892 20.759 5.78796 20.7945C5.76479 20.8073 5.74541 20.826 5.7318 20.8487C5.71818 20.8714 5.71082 20.8973 5.71046 20.9237C5.71588 20.9859 5.73489 21.0461 5.76614 21.1001C5.79738 21.1541 5.84011 21.2006 5.89129 21.2363C6.01142 21.3319 6.11088 21.4055 6.19096 21.4572L6.22971 21.4843C6.4015 21.6173 6.56683 21.7607 6.72312 21.9144C6.86779 22.041 6.99825 22.1844 7.11062 22.3407C7.22687 22.4944 7.32762 22.6584 7.409 22.8328C7.50329 23.0059 7.60275 23.2048 7.70737 23.4308C7.95021 24.0431 8.38162 24.561 8.93962 24.9098C9.52475 25.2237 10.1809 25.38 10.8461 25.3632C11.0709 25.3632 11.2969 25.3503 11.5204 25.3244C11.7425 25.2883 11.9634 25.2508 12.1856 25.2069V27.4582C12.1896 27.549 12.1744 27.6396 12.141 27.7241C12.1076 27.8086 12.0568 27.8852 11.9918 27.9487C11.9268 28.0122 11.8492 28.0613 11.764 28.0927C11.6787 28.1242 11.5878 28.1373 11.4971 28.1312H11.417C8.40493 27.1581 5.83919 25.1416 4.18186 22.4448C2.52452 19.748 1.8845 16.548 2.37703 13.4212C2.86956 10.2943 4.46229 7.44607 6.8684 5.3893C9.27451 3.33252 12.3359 2.20238 15.5013 2.20238C18.6667 2.20238 21.7281 3.33252 24.1342 5.3893C26.5403 7.44607 28.133 10.2943 28.6256 13.4212C29.1181 16.548 28.4781 19.748 26.8207 22.4448C25.1634 25.1416 22.5977 27.1581 19.5855 28.1312V28.1377V28.1364Z" fill="white"/>
</svg>
