<svg width="75" height="86" viewBox="0 0 264 300" fill="none" xmlns="http://www.w3.org/2000/svg">
<!-- <rect x="41" y="22" width="75" height="50" fill="white"/> -->
<path d="M4.57472 0C1.82472 0 -0.22428 2.241 0.0197199 4.98L23.2037 265.027C23.4477 267.766 25.8147 270.609 28.4657 271.345L126.847 298.661C129.497 299.397 133.833 299.397 136.484 298.663L235.164 271.302C237.814 270.567 240.184 267.724 240.428 264.986L263.65 4.98C263.896 2.241 261.845 0 259.095 0H4.57472ZM214.277 59.641C214.058 62.084 213.679 66.325 213.435 69.064L212.824 75.887C212.578 78.625 212.228 82.541 212.043 84.588C211.859 86.636 211.684 88.311 211.652 88.311C211.621 88.311 209.345 88.311 206.595 88.311H136.835C134.085 88.311 131.812 88.311 131.782 88.311C131.752 88.311 129.477 88.311 126.727 88.311H89.9867C87.2367 88.311 85.1877 90.552 85.4317 93.291L87.5747 117.246C87.8187 119.984 90.2697 122.226 93.0197 122.226H126.728C129.478 122.226 131.753 122.226 131.783 122.226C131.813 122.226 134.086 122.226 136.836 122.226H194.775C197.525 122.226 201.781 122.226 204.232 122.226C206.681 122.226 208.505 124.225 208.283 126.668C208.06 129.111 207.679 133.353 207.435 136.091L200.544 213.319C200.298 216.058 199.987 219.557 199.853 221.095C199.716 222.632 197.437 224.491 194.787 225.226L136.654 241.345C134.004 242.079 131.802 242.687 131.761 242.696C131.72 242.705 129.519 242.11 126.868 241.375L68.6727 225.227C66.0227 224.492 63.6547 221.649 63.4107 218.91L59.6647 176.865C59.4207 174.126 61.4717 171.885 64.2217 171.885H69.5327C72.2827 171.885 76.7827 171.885 79.5327 171.885H87.4527C90.2027 171.885 92.6517 174.126 92.8977 176.865L94.3667 193.324C94.6107 196.063 96.9817 198.89 99.6377 199.607L126.859 206.958C129.513 207.675 131.695 208.262 131.707 208.262C131.719 208.262 133.9 207.674 136.555 206.957L163.825 199.588C166.479 198.871 168.852 196.043 169.098 193.305L172.055 160.329C172.301 157.59 170.252 155.349 167.502 155.349H136.836C134.086 155.349 131.813 155.349 131.783 155.349C131.753 155.349 129.478 155.349 126.728 155.349H62.7387C59.9887 155.349 57.5397 153.107 57.2957 150.369L50.0397 69.063C49.7957 66.324 49.4167 62.084 49.1977 59.64C48.9807 57.197 51.0517 55.198 53.8017 55.198H126.728C129.478 55.198 131.753 55.198 131.783 55.198C131.813 55.198 134.086 55.198 136.836 55.198H209.674C212.423 55.198 214.495 57.197 214.277 59.641Z" fill="#FF5023"/>
</svg>
