<svg width="85px" height="96px" viewBox="0 0 278 295" fill="none" xmlns="http://www.w3.org/2000/svg">
<ellipse rx="111.907" ry="118.897" transform="matrix(0.998701 0.0509606 -0.0329497 0.999457 139.001 147.635)" fill="white"/>
<path d="M48.928 244.524C36.6092 231.459 26.8609 215.92 20.2666 198.836C13.6722 181.752 10.3674 163.475 10.5497 145.098C10.7321 126.721 14.3979 108.621 21.3278 91.8832C28.2578 75.1449 38.3094 60.1115 50.8812 47.6827C63.453 35.2539 78.2866 25.6851 94.4944 19.5489C110.702 13.4127 127.951 10.8353 145.209 11.9707C162.466 13.1062 179.378 17.9313 194.932 26.1573C210.487 34.3832 224.363 45.841 235.732 59.8449L219.915 74.3216C210.405 62.6075 198.797 53.0233 185.787 46.1424C172.776 39.2615 158.629 35.2254 144.194 34.2756C129.758 33.3258 115.329 35.4818 101.772 40.6147C88.2142 45.7475 75.8061 53.7516 65.29 64.1481C54.7739 74.5446 46.3658 87.1198 40.569 101.121C34.7723 115.122 31.7059 130.262 31.5533 145.634C31.4008 161.007 34.1653 176.295 39.6813 190.586C45.1974 204.876 53.3516 217.874 63.6562 228.802L48.928 244.524Z" fill="#5D87A1"/>
<path d="M235.249 59.1812C257.594 86.8428 268.809 122.676 266.425 158.799C264.042 194.922 248.255 228.375 222.538 251.798C196.822 275.222 163.281 286.698 129.296 283.701C95.3107 280.704 63.6642 263.48 41.3184 235.819L57.1737 221.377C75.8656 244.516 102.337 258.923 130.766 261.43C159.194 263.937 187.25 254.337 208.761 234.744C230.273 215.15 243.478 187.168 245.472 156.952C247.466 126.736 238.085 96.7612 219.393 73.6227L235.249 59.1812Z" fill="#F8981D"/>
<path d="M90.8104 198.953H83.6185C83.3642 185.97 82.6638 173.766 81.5186 162.329H81.4547L70.5051 198.953H65.0295L54.1452 162.329H54.0827C53.2752 173.309 52.7666 185.517 52.5553 198.953H46C46.4225 182.615 47.4842 167.298 49.1811 153H58.0948L68.4691 186.766H68.533L78.9713 153H87.5C89.3678 169.747 90.4713 185.065 90.8104 198.953M122 165.049C119.072 182.042 115.208 194.39 110.414 202.097C106.678 208.031 102.586 211 98.1287 211C96.9404 211 95.4743 210.617 93.7371 209.856V205.758C94.5862 205.889 95.5827 205.963 96.7278 205.963C98.8096 205.963 100.483 205.351 101.759 204.123C103.285 202.628 104.048 200.947 104.048 199.088C104.048 197.813 103.453 195.206 102.266 191.258L94.3736 165.047H101.439L107.104 184.651C108.377 189.102 108.907 192.21 108.695 193.98C111.792 185.132 113.956 175.485 115.189 165.046H122V165.049V165.049Z" fill="#5D87A1"/>
<path d="M219 199.597H198.618V152.698H205.475V193.824H219V199.597ZM193.283 200.73L185.402 196.476C186.101 195.848 186.769 195.168 187.371 194.381C190.721 190.076 192.391 183.71 192.391 175.278C192.391 159.762 186.826 152 175.691 152C170.231 152 165.971 153.969 162.925 157.908C159.578 162.216 157.907 168.559 157.907 176.946C157.907 185.19 159.388 191.238 162.351 195.074C165.062 198.549 169.148 200.289 174.612 200.289C176.65 200.289 178.521 200.016 180.225 199.465L190.485 206L193.283 200.73ZM167.753 190.213C166.017 187.158 165.149 182.252 165.149 175.488C165.149 163.68 168.428 157.769 174.993 157.769C178.425 157.769 180.94 159.182 182.548 162.004C184.282 165.063 185.154 169.925 185.154 176.594C185.154 188.5 181.872 194.454 175.311 194.454C171.878 194.455 169.363 193.046 167.753 190.213M154.919 186.598C154.919 190.575 153.585 193.838 150.921 196.394C148.253 198.939 144.676 200.215 140.193 200.215C136 200.215 131.935 198.749 128 195.834L129.843 191.807C133.229 193.662 136.294 194.584 139.046 194.584C141.629 194.584 143.648 193.958 145.112 192.715C146.575 191.469 147.447 189.72 147.447 187.508C147.447 184.722 145.671 182.34 142.413 180.345C139.408 178.54 133.399 174.766 133.399 174.766C130.142 172.17 128.512 169.382 128.512 164.789C128.512 160.987 129.728 157.919 132.161 155.584C134.597 153.241 137.74 152.073 141.593 152.073C145.573 152.073 149.19 153.239 152.448 155.548L150.796 159.577C148.009 158.281 145.258 157.634 142.545 157.634C140.347 157.634 138.65 158.212 137.47 159.372C136.28 160.528 135.547 162.007 135.547 163.821C135.547 166.594 137.36 169.005 140.707 171.04C143.752 172.848 149.911 176.687 149.911 176.687C153.251 179.279 154.919 182.041 154.919 186.598" fill="#F8981D"/>
<path d="M227.999 136.648C223.862 136.534 220.659 136.986 217.971 138.221C217.194 138.558 215.96 138.558 215.852 139.623C216.272 140.073 216.32 140.8 216.684 141.422C217.304 142.545 218.384 144.054 219.371 144.842C220.454 145.743 221.542 146.635 222.682 147.421C224.692 148.772 226.971 149.557 228.93 150.903C230.072 151.686 231.206 152.699 232.349 153.541C232.911 153.99 233.271 154.719 234 155V154.829C233.635 154.324 233.531 153.594 233.173 153.032L231.62 151.407C230.12 149.219 228.257 147.31 226.246 145.741C224.591 144.504 220.972 142.821 220.301 140.751L220.196 140.637C221.333 140.521 222.682 140.073 223.763 139.729C225.521 139.226 227.125 139.34 228.929 138.837C229.759 138.612 230.582 138.329 231.415 138.051V137.545C230.48 136.534 229.813 135.191 228.829 134.235C226.198 131.767 223.298 129.353 220.301 127.332C218.696 126.207 216.631 125.483 214.923 124.526C214.307 124.188 213.269 124.021 212.907 123.46C211.98 122.225 211.458 120.599 210.786 119.138C209.291 116.053 207.84 112.631 206.55 109.37C205.618 107.182 205.05 104.998 203.913 102.975C198.586 93.435 192.801 87.6573 183.91 81.9862C181.999 80.8054 179.726 80.3021 177.298 79.6832L173.419 79.4608C172.592 79.0672 171.763 77.9991 171.041 77.4943C168.091 75.4753 160.496 71.0991 158.327 76.8769C156.929 80.5289 160.394 84.1194 161.584 85.9717C162.462 87.2577 163.601 88.7209 164.215 90.1811C164.579 91.135 164.682 92.1476 165.046 93.1556C165.873 95.6254 166.646 98.373 167.734 100.678C168.301 101.852 168.92 103.087 169.645 104.151C170.06 104.773 170.782 105.048 170.94 106.062C170.219 107.179 170.162 108.866 169.749 110.27C167.889 116.611 168.615 124.466 171.251 129.126C172.076 130.529 174.043 133.618 176.675 132.434C179.005 131.425 178.489 128.226 179.159 125.422C179.312 124.744 179.211 124.299 179.521 123.855V123.964C180.242 125.534 180.97 127.047 181.638 128.621C183.242 131.369 186.034 134.232 188.36 136.136C189.598 137.151 190.579 138.888 192.13 139.508V139.34H192.028C191.714 138.837 191.254 138.612 190.842 138.221C189.909 137.21 188.877 135.975 188.154 134.854C185.987 131.71 184.069 128.229 182.367 124.637C181.534 122.895 180.816 120.99 180.145 119.25C179.832 118.579 179.832 117.566 179.314 117.228C178.536 118.462 177.403 119.53 176.835 121.041C175.852 123.458 175.749 126.431 175.384 129.523L175.181 129.631C173.534 129.182 172.961 127.332 172.336 125.763C170.788 121.776 170.528 115.376 171.871 110.776C172.231 109.6 173.787 105.895 173.166 104.774C172.855 103.7 171.82 103.089 171.253 102.243C170.586 101.179 169.855 99.8333 169.39 98.6525C168.15 95.5112 167.526 92.0304 166.191 88.8906C165.567 87.4274 164.484 85.9131 163.607 84.5656C162.622 83.0513 161.538 81.9847 160.759 80.1894C160.502 79.572 160.141 78.5625 160.554 77.8909C160.655 77.4403 160.866 77.272 161.278 77.1593C161.948 76.5449 163.861 77.3261 164.532 77.6641C166.449 78.5054 168.051 79.2911 169.65 80.4689C170.374 81.0322 171.15 82.0988 172.079 82.3798H173.166C174.817 82.7703 176.678 82.4879 178.232 82.9957C180.97 83.9511 183.451 85.3528 185.675 86.8656C192.446 91.5271 198.028 98.1507 201.797 106.062C202.416 107.351 202.679 108.531 203.243 109.876C204.332 112.628 205.679 115.434 206.759 118.128C207.845 120.765 208.88 123.457 210.431 125.647C211.205 126.825 214.312 127.442 215.706 128.06C216.736 128.563 218.341 129.011 219.271 129.628C221.03 130.804 222.782 132.155 224.435 133.448C225.258 134.121 227.846 135.524 227.999 136.648M175.275 87.8781C174.561 87.8701 173.85 87.965 173.159 88.1605V88.2732H173.259C173.675 89.1701 174.399 89.792 174.915 90.5747C175.331 91.4746 175.693 92.3669 176.101 93.2653L176.2 93.1541C176.93 92.5938 177.292 91.6954 177.292 90.3479C176.978 89.9513 176.93 89.5637 176.668 89.1701C176.364 88.6082 175.693 88.3288 175.275 87.8781" fill="#5D87A1"/>
</svg>
